<svg width="612" height="280" viewBox="0 0 612 280" fill="none" xmlns="http://www.w3.org/2000/svg">
<g clip-path="url(#clip0_4006_12036)">
<path d="M0 186.598L82.541 37.3607V36.3343H13.3296C11.9849 36.2362 10.7221 35.6503 9.77823 34.6866C8.83434 33.7228 8.27417 32.4474 8.20283 31.0997V8.00584C8.25502 6.61655 8.83661 5.29997 9.82818 4.32648C10.8197 3.353 12.146 2.79649 13.5347 2.77124H129.092C130.463 2.82211 131.764 3.38994 132.733 4.36081C133.703 5.33168 134.271 6.63377 134.321 8.00584V11.5982L52.9083 162.683V163.299H123.555C124.942 163.299 126.272 163.851 127.253 164.832C128.234 165.814 128.785 167.145 128.785 168.534V191.32C128.785 192.718 128.237 194.06 127.259 195.058C126.281 196.056 124.951 196.63 123.555 196.657H5.22931C3.84141 196.605 2.52617 196.022 1.55367 195.03C0.58117 194.037 0.0252246 192.71 0 191.32V186.598Z" fill="#FED900"/>
<path d="M194.51 83.1378C209.52 83.7687 223.706 90.1813 234.104 101.036C244.501 111.89 250.307 126.347 250.307 141.386C250.307 156.424 244.501 170.881 234.104 181.735C223.706 192.59 209.52 199.003 194.51 199.633C179.5 199.003 165.314 192.59 154.916 181.735C144.518 170.881 138.713 156.424 138.713 141.386C138.713 126.347 144.518 111.89 154.916 101.036C165.314 90.1813 179.5 83.7687 194.51 83.1378ZM194.51 169.663C201.817 169.395 208.722 166.244 213.717 160.898C218.712 155.552 221.391 148.445 221.169 141.129C221.264 137.535 220.65 133.957 219.36 130.602C218.071 127.246 216.132 124.178 213.655 121.575C211.178 118.971 208.211 116.883 204.926 115.43C201.64 113.977 198.101 113.188 194.51 113.108C190.919 113.174 187.378 113.955 184.092 115.404C180.806 116.854 177.84 118.943 175.369 121.551C172.897 124.159 170.969 127.233 169.696 130.594C168.422 133.955 167.83 137.536 167.953 141.129C167.802 144.754 168.372 148.372 169.629 151.775C170.886 155.177 172.805 158.296 175.276 160.95C177.746 163.605 180.718 165.742 184.02 167.237C187.322 168.733 190.887 169.557 194.51 169.663Z" fill="#FED900"/>
<path d="M324.217 83.1378C335.806 82.8519 347.216 86.0344 356.987 92.2779C366.759 98.5213 374.446 107.542 379.066 118.184C383.687 128.827 385.029 140.607 382.921 152.018C380.814 163.429 375.353 173.95 367.237 182.236C359.121 190.521 348.719 196.194 337.364 198.527C326.008 200.861 314.215 199.749 303.495 195.335C292.774 190.92 283.614 183.403 277.186 173.747C270.758 164.09 267.355 152.733 267.412 141.129C267.409 125.942 273.358 111.361 283.98 100.517C294.601 89.6735 309.049 83.4335 324.217 83.1378ZM324.217 169.663C331.515 169.395 338.41 166.241 343.389 160.892C348.367 155.543 351.023 148.436 350.774 141.129C350.774 134.079 347.976 127.317 342.995 122.332C338.015 117.346 331.26 114.545 324.217 114.545C317.174 114.545 310.419 117.346 305.439 122.332C300.458 127.317 297.66 134.079 297.66 141.129C297.509 144.754 298.079 148.372 299.336 151.775C300.593 155.177 302.512 158.296 304.983 160.95C307.453 163.605 310.425 165.742 313.727 167.237C317.029 168.733 320.594 169.557 324.217 169.663Z" fill="#FED900"/>
<path d="M412.295 115.059H402.964C402.269 115.072 401.578 114.947 400.931 114.69C400.285 114.433 399.696 114.05 399.2 113.562C398.703 113.075 398.309 112.493 398.04 111.851C397.771 111.209 397.632 110.52 397.632 109.824V91.2464C397.603 90.5377 397.721 89.8308 397.979 89.1701C398.237 88.5095 398.629 87.9095 399.13 87.408C399.631 86.9065 400.23 86.5143 400.89 86.2564C401.55 85.9984 402.256 85.8802 402.964 85.9091H412.295V56.0411C412.295 19.3989 434.75 2.14768e-05 464.178 2.14768e-05C475.927 -0.0444506 487.371 3.73827 496.784 10.7772C497.622 11.6028 498.181 12.6699 498.383 13.8293C498.586 14.9887 498.421 16.1824 497.912 17.2434L488.479 34.8974C488.145 35.4408 487.705 35.9109 487.185 36.2794C486.665 36.6479 486.076 36.9072 485.453 37.0414C484.83 37.1757 484.186 37.1823 483.561 37.0608C482.936 36.9392 482.341 36.6921 481.814 36.3343C476.95 33.1063 471.332 31.1966 465.511 30.7918C453.617 30.7918 446.952 39.9267 446.952 56.0411V85.9091H474.636C475.336 85.8945 476.031 86.0234 476.679 86.2878C477.326 86.5522 477.913 86.9466 478.403 87.4465C478.893 87.9465 479.276 88.5416 479.527 89.195C479.779 89.8485 479.894 90.5466 479.866 91.2464V109.824C479.866 111.212 479.315 112.544 478.334 113.526C477.353 114.507 476.023 115.059 474.636 115.059H446.952V191.32C446.927 192.71 446.371 194.037 445.398 195.03C444.426 196.023 443.11 196.605 441.722 196.657H417.627C416.229 196.606 414.902 196.027 413.913 195.037C412.924 194.047 412.346 192.719 412.295 191.32V115.059Z" fill="#FED900"/>
<path d="M486.633 93.1965C486.203 92.4161 485.993 91.5338 486.025 90.6434C486.057 89.753 486.329 88.8879 486.813 88.1401C487.297 87.3924 487.975 86.79 488.773 86.3971C489.572 86.0043 490.463 85.8356 491.35 85.9091H516.266C517.218 85.8855 518.158 86.1336 518.975 86.6243C519.792 87.1149 520.452 87.828 520.88 88.6803L548.872 151.29L576.557 88.6803C577.992 85.9091 579.94 85.6012 583.221 85.6012H605.369C606.267 85.4892 607.179 85.6328 608 86.0156C608.82 86.3983 609.516 87.0047 610.009 87.7652C610.501 88.5258 610.769 89.4097 610.783 90.3158C610.796 91.2219 610.555 92.1136 610.086 92.8885L525.699 276.716C525.279 277.636 524.62 278.426 523.79 279.004C522.96 279.582 521.99 279.926 520.982 280H497.092C496.183 280.079 495.271 279.903 494.456 279.493C493.641 279.083 492.957 278.454 492.478 277.677C492 276.9 491.746 276.005 491.746 275.092C491.746 274.179 491.999 273.284 492.477 272.507L531.749 189.062L486.633 93.1965Z" fill="#FED900"/>
</g>
<defs>
<clipPath id="clip0_4006_12036">
<rect width="611.111" height="280" fill="white"/>
</clipPath>
</defs>
</svg>
